<?xml version="1.0" encoding="UTF-8" standalone="no"?>
<!-- Created with Inkscape (http://www.inkscape.org/) -->

<svg
   xmlns:dc="http://purl.org/dc/elements/1.1/"
   xmlns:cc="http://creativecommons.org/ns#"
   xmlns:rdf="http://www.w3.org/1999/02/22-rdf-syntax-ns#"
   xmlns:svg="http://www.w3.org/2000/svg"
   xmlns="http://www.w3.org/2000/svg"
   xmlns:sodipodi="http://sodipodi.sourceforge.net/DTD/sodipodi-0.dtd"
   xmlns:inkscape="http://www.inkscape.org/namespaces/inkscape"
   width="1052.3622"
   height="1488.189"
   id="svg2"
   version="1.1"
   inkscape:version="0.48.3.1 r9886"
   sodipodi:docname="Tree.svg">
  <defs
     id="defs4" />
  <sodipodi:namedview
     id="base"
     pagecolor="#ffffff"
     bordercolor="#666666"
     borderopacity="1.0"
     inkscape:pageopacity="0.0"
     inkscape:pageshadow="2"
     inkscape:zoom="0.53689418"
     inkscape:cx="526.18109"
     inkscape:cy="744.09448"
     inkscape:document-units="mm"
     inkscape:current-layer="g4097"
     showgrid="false"
     units="mm"
     inkscape:object-nodes="true"
     inkscape:window-width="1280"
     inkscape:window-height="965"
     inkscape:window-x="0"
     inkscape:window-y="27"
     inkscape:window-maximized="1">
    <inkscape:grid
       type="xygrid"
       id="grid2985"
       empspacing="5"
       visible="true"
       enabled="true"
       snapvisiblegridlinesonly="true"
       units="mm"
       spacingx="1mm"
       spacingy="1mm" />
  </sodipodi:namedview>
  <metadata
     id="metadata7">
    <rdf:RDF>
      <cc:Work
         rdf:about="">
        <dc:format>image/svg+xml</dc:format>
        <dc:type
           rdf:resource="http://purl.org/dc/dcmitype/StillImage" />
        <dc:title></dc:title>
      </cc:Work>
    </rdf:RDF>
  </metadata>
  <g
     inkscape:label="Layer 1"
     inkscape:groupmode="layer"
     id="layer1"
     transform="translate(0,435.82682)"
     style="display:inline"
     sodipodi:insensitive="true">
    <path
       style="fill:none;stroke:#000000;stroke-width:1px;stroke-linecap:butt;stroke-linejoin:miter;stroke-opacity:1"
       d="m 513.78125,194.875 -17.71875,35.4375 0,88.59375 -17.71875,0 0,-53.15625 -17.71875,35.4375 0,88.5625 -17.71875,0 0,-53.125 -17.71875,35.4375 0,88.5625 -17.71875,0 0,-53.125 -17.71875,35.40625 0,0.0313 0,88.5625 -17.6875,0 0,-53.1875 -17.71875,35.46875 0,88.59375 -17.71875,0 0,-53.1875 -17.71875,35.46875 0,88.5625 -17.71875,0 0,-53.15625 -17.71875,35.4375 0,0.0313 0,88.5625 -17.71875,0 0,-53.125 -17.71875,35.40625 0,0.0313 0,88.5625 -17.71875,0 0,-53.125 -17.71875,35.40625 0,0.0313 0,88.53125 -17.71875,0 0,-53.09375 -17.71875,35.40625 0,0.0313 0,88.53125 -17.71875,0 0,-53.09375 -17.71875,35.4375 0,88.5313 -17.6875,0 0,-53.1563 -35.4375,70.875 -0.01107,17.7109 478.33366,0.01 0.0128,-868.11717 -35.42913,-0.007 0,53.15625 -17.71875,0 z"
       id="path3779"
       inkscape:connector-curvature="0"
       sodipodi:nodetypes="cccccccccccccccccccccccccccccccccccccccccccccccccccccccccc"
       transform="translate(0,-435.82682)" />
    <rect
       style="fill:none;stroke:#ff0000;stroke-width:0.70866144;stroke-linecap:round;stroke-linejoin:round;stroke-miterlimit:4;stroke-opacity:1;stroke-dasharray:none;stroke-dashoffset:7.08661437"
       id="rect3819"
       width="106.29921"
       height="389.76379"
       x="589.59344"
       y="237.41179" />
    <path
       sodipodi:type="arc"
       style="fill:none;stroke:#ff0000;stroke-width:0.70866144;stroke-linecap:round;stroke-linejoin:round;stroke-miterlimit:4;stroke-opacity:1;stroke-dasharray:none;stroke-dashoffset:7.08661437"
       id="path3821"
       sodipodi:cx="602.36218"
       sodipodi:cy="708.66138"
       sodipodi:rx="17.716536"
       sodipodi:ry="17.716536"
       d="m 620.07872,708.66138 a 17.716536,17.716536 0 1 1 -35.43307,0 17.716536,17.716536 0 1 1 35.43307,0 z"
       transform="matrix(0.62,0,0,0.62,269.34753,-131.03141)" />
    <path
       style="fill:none;stroke:#ff0000;stroke-width:0.56692851;stroke-linecap:round;stroke-linejoin:round;stroke-miterlimit:4;stroke-opacity:1;stroke-dasharray:none;stroke-dashoffset:7.08661437"
       d="m 566.90625,673.25 0,389.75 11.34375,0 11.34375,0 0,-389.75 -11.34375,0 -11.34375,0 z"
       transform="translate(0,-435.82682)"
       id="rect3827"
       inkscape:connector-curvature="0" />
    <path
       transform="matrix(0.62,0,0,0.62,269.34753,117.0001)"
       d="m 620.07872,708.66138 a 17.716536,17.716536 0 1 1 -35.43307,0 17.716536,17.716536 0 1 1 35.43307,0 z"
       sodipodi:ry="17.716536"
       sodipodi:rx="17.716536"
       sodipodi:cy="708.66138"
       sodipodi:cx="602.36218"
       id="path3831"
       style="fill:none;stroke:#ff0000;stroke-width:0.70866144;stroke-linecap:round;stroke-linejoin:round;stroke-miterlimit:4;stroke-opacity:1;stroke-dasharray:none;stroke-dashoffset:7.08661437"
       sodipodi:type="arc" />
    <rect
       y="237.41179"
       x="460.61713"
       height="389.76379"
       width="106.29921"
       id="rect3833"
       style="fill:none;stroke:#ff0000;stroke-width:0.70866144;stroke-linecap:round;stroke-linejoin:round;stroke-miterlimit:4;stroke-opacity:1;stroke-dasharray:none;stroke-dashoffset:7.08661437" />
    <path
       transform="matrix(0.62,0,0,0.62,140.30218,-131.09213)"
       d="m 620.07872,708.66138 a 17.716536,17.716536 0 1 1 -35.43307,0 17.716536,17.716536 0 1 1 35.43307,0 z"
       sodipodi:ry="17.716536"
       sodipodi:rx="17.716536"
       sodipodi:cy="708.66138"
       sodipodi:cx="602.36218"
       id="path3835"
       style="fill:none;stroke:#ff0000;stroke-width:0.70866144;stroke-linecap:round;stroke-linejoin:round;stroke-miterlimit:4;stroke-opacity:1;stroke-dasharray:none;stroke-dashoffset:7.08661437"
       sodipodi:type="arc" />
    <path
       sodipodi:type="arc"
       style="fill:none;stroke:#ff0000;stroke-width:0.70866144;stroke-linecap:round;stroke-linejoin:round;stroke-miterlimit:4;stroke-opacity:1;stroke-dasharray:none;stroke-dashoffset:7.08661437"
       id="path3837"
       sodipodi:cx="602.36218"
       sodipodi:cy="708.66138"
       sodipodi:rx="17.716536"
       sodipodi:ry="17.716536"
       d="m 620.07872,708.66138 a 17.716536,17.716536 0 1 1 -35.43307,0 17.716536,17.716536 0 1 1 35.43307,0 z"
       transform="matrix(0.62,0,0,0.62,140.30218,116.93938)" />
    <path
       sodipodi:nodetypes="cccccccccccccccccccccccccccccccccccccccccccccccccccccccccc"
       inkscape:connector-curvature="0"
       id="path3844"
       d="m 642.79764,-240.89105 17.71875,35.4375 0,88.59375 17.71875,0 0,-53.15625 17.71875,35.4375 0,88.5625 17.71875,0 0,-53.125 17.71875,35.4375 0,88.5625 17.71874,0 0,-53.125 17.7188,35.4062492 0,0.0313 0,88.5624958 17.6875,0 0,-53.187495 17.7187,35.46875 0,88.59375 17.7188,0 0,-53.1875 17.7187,35.46875 0,88.5625 17.7188,0 0,-53.15625 17.7187,35.4375 0,0.0313 0,88.5625 17.7188,0 0,-53.125 17.7187,35.40625 0,0.0313 0,88.5625 17.7188,0 0,-53.125 17.7187,35.40625 0,0.0313 0,88.53125 17.7188,0 0,-53.09375 17.7187,35.40625 0,0.0313 0,88.53125 17.7188,0 0,-53.09375 17.71867,35.4375 0,88.53125 17.6875,0 0,-53.15625 35.4375,70.87495 0.011,17.7109 -478.33362,0.01 -0.0128,-868.11712 35.42913,-0.007 0,53.15625 17.71875,0 z"
       style="fill:none;stroke:#000000;stroke-width:1px;stroke-linecap:butt;stroke-linejoin:miter;stroke-opacity:1" />
    <rect
       style="fill:none;stroke:#ff0000;stroke-width:0.67127031;stroke-linecap:round;stroke-linejoin:round;stroke-miterlimit:4;stroke-opacity:1;stroke-dasharray:none;stroke-dashoffset:7.08661437"
       id="rect3848"
       width="88.641663"
       height="354.39304"
       x="478.34369"
       y="-116.92053" />
    <path
       sodipodi:type="arc"
       style="fill:none;stroke:#ff0000;stroke-width:0.70866144;stroke-linecap:round;stroke-linejoin:round;stroke-miterlimit:4;stroke-opacity:1;stroke-dasharray:none;stroke-dashoffset:7.08661437"
       id="path3850"
       sodipodi:cx="602.36218"
       sodipodi:cy="708.66138"
       sodipodi:rx="17.716536"
       sodipodi:ry="17.716536"
       d="m 620.07872,708.66138 a 17.716536,17.716536 0 1 1 -35.43307,0 17.716536,17.716536 0 1 1 35.43307,0 z"
       transform="matrix(0.62,0,0,0.62,140.37114,-520.79516)" />
    <path
       transform="matrix(0.62,0,0,0.62,140.37114,-272.76365)"
       d="m 620.07872,708.66138 a 17.716536,17.716536 0 1 1 -35.43307,0 17.716536,17.716536 0 1 1 35.43307,0 z"
       sodipodi:ry="17.716536"
       sodipodi:rx="17.716536"
       sodipodi:cy="708.66138"
       sodipodi:cx="602.36218"
       id="path3852"
       style="fill:none;stroke:#ff0000;stroke-width:0.70866144;stroke-linecap:round;stroke-linejoin:round;stroke-miterlimit:4;stroke-opacity:1;stroke-dasharray:none;stroke-dashoffset:7.08661437"
       sodipodi:type="arc" />
    <path
       style="fill:none;stroke:#ff0000;stroke-width:0.56692851;stroke-linecap:round;stroke-linejoin:round;stroke-miterlimit:4;stroke-opacity:1;stroke-dasharray:none;stroke-dashoffset:7.08661437"
       d="m 566.90625,283.46875 0,389.78125 11.34375,0 11.34375,0 0,-389.78125 -11.34375,0 -11.34375,0 z"
       transform="translate(0,-435.82682)"
       id="rect3866"
       inkscape:connector-curvature="0" />
    <rect
       y="-116.98125"
       x="-678.23517"
       height="354.39304"
       width="88.641663"
       id="rect3877"
       style="fill:none;stroke:#ff0000;stroke-width:0.67127031;stroke-linecap:round;stroke-linejoin:round;stroke-miterlimit:4;stroke-opacity:1;stroke-dasharray:none;stroke-dashoffset:7.08661437"
       transform="scale(-1,1)" />
    <path
       transform="matrix(-0.62,0,0,0.62,1016.2077,-520.85588)"
       d="m 620.07872,708.66138 a 17.716536,17.716536 0 1 1 -35.43307,0 17.716536,17.716536 0 1 1 35.43307,0 z"
       sodipodi:ry="17.716536"
       sodipodi:rx="17.716536"
       sodipodi:cy="708.66138"
       sodipodi:cx="602.36218"
       id="path3879"
       style="fill:none;stroke:#ff0000;stroke-width:0.70866144;stroke-linecap:round;stroke-linejoin:round;stroke-miterlimit:4;stroke-opacity:1;stroke-dasharray:none;stroke-dashoffset:7.08661437"
       sodipodi:type="arc" />
    <path
       sodipodi:type="arc"
       style="fill:none;stroke:#ff0000;stroke-width:0.70866144;stroke-linecap:round;stroke-linejoin:round;stroke-miterlimit:4;stroke-opacity:1;stroke-dasharray:none;stroke-dashoffset:7.08661437"
       id="path3881"
       sodipodi:cx="602.36218"
       sodipodi:cy="708.66138"
       sodipodi:rx="17.716536"
       sodipodi:ry="17.716536"
       d="m 620.07872,708.66138 a 17.716536,17.716536 0 1 1 -35.43307,0 17.716536,17.716536 0 1 1 35.43307,0 z"
       transform="matrix(-0.62,0,0,0.62,1016.2077,-272.82437)" />
  </g>
  <g
     style="display:none"
     transform="translate(0,435.82682)"
     id="g4097"
     inkscape:groupmode="layer"
     inkscape:label="upper 2">
    <path
       transform="matrix(0.62,0,0,0.62,269.34753,-131.03141)"
       d="m 620.07872,708.66138 a 17.716536,17.716536 0 1 1 -35.43307,0 17.716536,17.716536 0 1 1 35.43307,0 z"
       sodipodi:ry="17.716536"
       sodipodi:rx="17.716536"
       sodipodi:cy="708.66138"
       sodipodi:cx="602.36218"
       id="path4103"
       style="fill:none;stroke:#ff0000;stroke-width:0.70866144;stroke-linecap:round;stroke-linejoin:round;stroke-miterlimit:4;stroke-opacity:1;stroke-dasharray:none;stroke-dashoffset:7.08661437"
       sodipodi:type="arc" />
    <path
       sodipodi:type="arc"
       style="fill:none;stroke:#ff0000;stroke-width:0.70866144;stroke-linecap:round;stroke-linejoin:round;stroke-miterlimit:4;stroke-opacity:1;stroke-dasharray:none;stroke-dashoffset:7.08661437"
       id="path4107"
       sodipodi:cx="602.36218"
       sodipodi:cy="708.66138"
       sodipodi:rx="17.716536"
       sodipodi:ry="17.716536"
       d="m 620.07872,708.66138 a 17.716536,17.716536 0 1 1 -35.43307,0 17.716536,17.716536 0 1 1 35.43307,0 z"
       transform="matrix(0.62,0,0,0.62,269.34753,117.0001)" />
    <path
       style="fill:none;stroke:#000000;stroke-width:1px;stroke-linecap:butt;stroke-linejoin:miter;stroke-opacity:1"
       d="m 566.90625,194.9375 0,123.96875 -88.5625,0 0,354.40625 88.65625,0 0,-0.0625 13.75,0 8.90625,0 0,389.8125 478.34375,0 0,-17.7187 -35.4375,-70.87505 0,53.15625 -17.6875,0 0,-88.53125 -17.71875,-35.4375 0,53.09375 -17.71875,0 0,-88.53125 0,-0.0313 -17.71875,-35.40625 0,53.09375 -17.71875,0 0,-88.53125 0,-0.0313 -17.71875,-35.40625 0,53.125 -17.71875,0 0,-88.5625 0,-0.0313 -17.71875,-35.40625 0,53.125 -17.71875,0 0,-88.5625 0,-0.0313 -17.71875,-35.4375 0,53.15625 -17.71875,0 0,-88.5625 -17.71875,-35.46875 0,53.1875 -17.71875,0 0,-88.59375 -17.71875,-35.46875 0,53.1875 -17.6875,0 0,-88.5625 0,-0.0313 -17.71875,-35.40625 0,53.125 -17.71875,0 0,-88.5625 -17.71875,-35.4375 0,53.125 -17.71875,0 0,-88.5625 -17.71875,-35.4375 0,53.15625 -17.71875,0 0,-88.59375 -17.71875,-35.4375 0,53.15625 -17.71875,0 0,-53.15625 -30.5,0 -4.9375,0 -8.90625,0 -13.84375,0 z"
       transform="translate(0,-435.82682)"
       id="path4115"
       inkscape:connector-curvature="0" />
    <path
       transform="matrix(0.62,0,0,0.62,140.37114,-520.79516)"
       d="m 620.07872,708.66138 a 17.716536,17.716536 0 1 1 -35.43307,0 17.716536,17.716536 0 1 1 35.43307,0 z"
       sodipodi:ry="17.716536"
       sodipodi:rx="17.716536"
       sodipodi:cy="708.66138"
       sodipodi:cx="602.36218"
       id="path4119"
       style="fill:none;stroke:#ff0000;stroke-width:0.70866144;stroke-linecap:round;stroke-linejoin:round;stroke-miterlimit:4;stroke-opacity:1;stroke-dasharray:none;stroke-dashoffset:7.08661437"
       sodipodi:type="arc" />
    <path
       sodipodi:type="arc"
       style="fill:none;stroke:#ff0000;stroke-width:0.70866144;stroke-linecap:round;stroke-linejoin:round;stroke-miterlimit:4;stroke-opacity:1;stroke-dasharray:none;stroke-dashoffset:7.08661437"
       id="path4121"
       sodipodi:cx="602.36218"
       sodipodi:cy="708.66138"
       sodipodi:rx="17.716536"
       sodipodi:ry="17.716536"
       d="m 620.07872,708.66138 a 17.716536,17.716536 0 1 1 -35.43307,0 17.716536,17.716536 0 1 1 35.43307,0 z"
       transform="matrix(0.62,0,0,0.62,140.37114,-272.76365)" />
    <path
       sodipodi:type="arc"
       style="fill:none;stroke:#ff0000;stroke-width:0.70866144;stroke-linecap:round;stroke-linejoin:round;stroke-miterlimit:4;stroke-opacity:1;stroke-dasharray:none;stroke-dashoffset:7.08661437"
       id="path4127"
       sodipodi:cx="602.36218"
       sodipodi:cy="708.66138"
       sodipodi:rx="17.716536"
       sodipodi:ry="17.716536"
       d="m 620.07872,708.66138 a 17.716536,17.716536 0 1 1 -35.43307,0 17.716536,17.716536 0 1 1 35.43307,0 z"
       transform="matrix(-0.62,0,0,0.62,1016.2077,-520.85588)" />
    <path
       transform="matrix(-0.62,0,0,0.62,1016.2077,-272.82437)"
       d="m 620.07872,708.66138 a 17.716536,17.716536 0 1 1 -35.43307,0 17.716536,17.716536 0 1 1 35.43307,0 z"
       sodipodi:ry="17.716536"
       sodipodi:rx="17.716536"
       sodipodi:cy="708.66138"
       sodipodi:cx="602.36218"
       id="path4129"
       style="fill:none;stroke:#ff0000;stroke-width:0.70866144;stroke-linecap:round;stroke-linejoin:round;stroke-miterlimit:4;stroke-opacity:1;stroke-dasharray:none;stroke-dashoffset:7.08661437"
       sodipodi:type="arc" />
  </g>
  <g
     style="display:none"
     transform="translate(0,435.82682)"
     id="g4053"
     inkscape:groupmode="layer"
     inkscape:label="upper 1">
    <path
       style="fill:none;stroke:#000000;stroke-width:1px;stroke-linecap:butt;stroke-linejoin:miter;stroke-opacity:1"
       d="m 513.78125,194.875 -17.71875,35.4375 0,88.59375 -17.71875,0 0,-53.15625 -17.71875,35.4375 0,88.5625 -17.71875,0 0,-53.125 -17.71875,35.4375 0,88.5625 -17.71875,0 0,-53.125 -17.71875,35.40625 0,0.0313 0,88.5625 -17.6875,0 0,-53.1875 -17.71875,35.46875 0,88.59375 -17.71875,0 0,-53.1875 -17.71875,35.46875 0,88.5625 -17.71875,0 0,-53.15625 -17.71875,35.4375 0,0.0313 0,88.5625 -17.71875,0 0,-53.125 -17.71875,35.40625 0,0.0313 0,88.5625 -17.71875,0 0,-53.125 -17.71875,35.40625 0,0.0313 0,88.53125 -17.71875,0 0,-53.09375 -17.71875,35.40625 0,0.0313 0,88.53125 -17.71875,0 0,-53.09375 -17.71875,35.4375 0,88.5313 -17.6875,0 0,-53.1563 -35.4375,70.875 0,17.7188 478.3125,0 0,-389.75005 22.6875,0 88.65625,0 0,-354.40625 -88.65625,0 0,-123.96875 -22.65625,0 -6.53125,0 -28.90625,0 0,53.15625 -17.71875,0 0,-53.15625 z"
       transform="translate(0,-435.82682)"
       id="path4092"
       inkscape:connector-curvature="0" />
    <path
       sodipodi:type="arc"
       style="fill:none;stroke:#ff0000;stroke-width:0.70866144;stroke-linecap:round;stroke-linejoin:round;stroke-miterlimit:4;stroke-opacity:1;stroke-dasharray:none;stroke-dashoffset:7.08661437"
       id="path4067"
       sodipodi:cx="602.36218"
       sodipodi:cy="708.66138"
       sodipodi:rx="17.716536"
       sodipodi:ry="17.716536"
       d="m 620.07872,708.66138 a 17.716536,17.716536 0 1 1 -35.43307,0 17.716536,17.716536 0 1 1 35.43307,0 z"
       transform="matrix(0.62,0,0,0.62,140.30218,-131.09213)" />
    <path
       transform="matrix(0.62,0,0,0.62,140.30218,116.93938)"
       d="m 620.07872,708.66138 a 17.716536,17.716536 0 1 1 -35.43307,0 17.716536,17.716536 0 1 1 35.43307,0 z"
       sodipodi:ry="17.716536"
       sodipodi:rx="17.716536"
       sodipodi:cy="708.66138"
       sodipodi:cx="602.36218"
       id="path4069"
       style="fill:none;stroke:#ff0000;stroke-width:0.70866144;stroke-linecap:round;stroke-linejoin:round;stroke-miterlimit:4;stroke-opacity:1;stroke-dasharray:none;stroke-dashoffset:7.08661437"
       sodipodi:type="arc" />
    <path
       transform="matrix(0.62,0,0,0.62,140.37114,-520.79516)"
       d="m 620.07872,708.66138 a 17.716536,17.716536 0 1 1 -35.43307,0 17.716536,17.716536 0 1 1 35.43307,0 z"
       sodipodi:ry="17.716536"
       sodipodi:rx="17.716536"
       sodipodi:cy="708.66138"
       sodipodi:cx="602.36218"
       id="path4075"
       style="fill:none;stroke:#ff0000;stroke-width:0.70866144;stroke-linecap:round;stroke-linejoin:round;stroke-miterlimit:4;stroke-opacity:1;stroke-dasharray:none;stroke-dashoffset:7.08661437"
       sodipodi:type="arc" />
    <path
       sodipodi:type="arc"
       style="fill:none;stroke:#ff0000;stroke-width:0.70866144;stroke-linecap:round;stroke-linejoin:round;stroke-miterlimit:4;stroke-opacity:1;stroke-dasharray:none;stroke-dashoffset:7.08661437"
       id="path4077"
       sodipodi:cx="602.36218"
       sodipodi:cy="708.66138"
       sodipodi:rx="17.716536"
       sodipodi:ry="17.716536"
       d="m 620.07872,708.66138 a 17.716536,17.716536 0 1 1 -35.43307,0 17.716536,17.716536 0 1 1 35.43307,0 z"
       transform="matrix(0.62,0,0,0.62,140.37114,-272.76365)" />
    <path
       sodipodi:type="arc"
       style="fill:none;stroke:#ff0000;stroke-width:0.70866144;stroke-linecap:round;stroke-linejoin:round;stroke-miterlimit:4;stroke-opacity:1;stroke-dasharray:none;stroke-dashoffset:7.08661437"
       id="path4083"
       sodipodi:cx="602.36218"
       sodipodi:cy="708.66138"
       sodipodi:rx="17.716536"
       sodipodi:ry="17.716536"
       d="m 620.07872,708.66138 a 17.716536,17.716536 0 1 1 -35.43307,0 17.716536,17.716536 0 1 1 35.43307,0 z"
       transform="matrix(-0.62,0,0,0.62,1016.2077,-520.85588)" />
    <path
       transform="matrix(-0.62,0,0,0.62,1016.2077,-272.82437)"
       d="m 620.07872,708.66138 a 17.716536,17.716536 0 1 1 -35.43307,0 17.716536,17.716536 0 1 1 35.43307,0 z"
       sodipodi:ry="17.716536"
       sodipodi:rx="17.716536"
       sodipodi:cy="708.66138"
       sodipodi:cx="602.36218"
       id="path4085"
       style="fill:none;stroke:#ff0000;stroke-width:0.70866144;stroke-linecap:round;stroke-linejoin:round;stroke-miterlimit:4;stroke-opacity:1;stroke-dasharray:none;stroke-dashoffset:7.08661437"
       sodipodi:type="arc" />
  </g>
  <g
     style="display:none"
     transform="translate(0,435.82682)"
     id="g4016"
     inkscape:groupmode="layer"
     inkscape:label="lower 2">
    <path
       transform="matrix(0.62,0,0,0.62,269.34753,-131.03141)"
       d="m 620.07872,708.66138 a 17.716536,17.716536 0 1 1 -35.43307,0 17.716536,17.716536 0 1 1 35.43307,0 z"
       sodipodi:ry="17.716536"
       sodipodi:rx="17.716536"
       sodipodi:cy="708.66138"
       sodipodi:cx="602.36218"
       id="path4022"
       style="fill:none;stroke:#ff0000;stroke-width:0.70866144;stroke-linecap:round;stroke-linejoin:round;stroke-miterlimit:4;stroke-opacity:1;stroke-dasharray:none;stroke-dashoffset:7.08661437"
       sodipodi:type="arc" />
    <path
       style="fill:none;stroke:#000000;stroke-width:0.56692851;stroke-linecap:round;stroke-linejoin:round;stroke-miterlimit:4;stroke-opacity:1;stroke-dasharray:none;stroke-dashoffset:7.08661437"
       d="m 589.59375,194.875 0,478.375 -11.34375,0 -11.34375,0 -106.28125,0 0,389.75 106.28125,0 11.34375,0 11.34375,0 478.34375,0 -0.031,-17.7188 -35.4374,-70.87495 0,53.15625 -17.6876,0 0,-88.53125 -17.7187,-35.4375 0,53.09375 -17.71875,0 0,-88.53125 0,-0.0313 -17.71875,-35.40625 0,53.09375 -17.71875,0 0,-88.53125 0,-0.0313 -17.71875,-35.40625 0,53.125 -17.71875,0 0,-88.5625 0,-0.0313 -17.71875,-35.40625 0,53.125 -17.71875,0 0,-88.5625 0,-0.0313 -17.71875,-35.4375 0,53.15625 -17.71875,0 0,-88.5625 -17.71875,-35.46875 0,53.1875 -17.71875,0 0,-88.59375 -17.71875,-35.46875 0,53.1875 -17.6875,0 0,-88.5625 0,-0.0313 -17.71875,-35.40625 0,53.125 -17.71875,0 0,-88.5625 -17.71875,-35.4375 0,53.125 -17.71875,0 0,-88.5625 -17.71875,-35.4375 0,53.15625 -17.71875,0 0,-88.59375 -17.71875,-35.4375 0,53.15625 -17.71875,0 0,-53.15625 -35.40625,0 z"
       transform="translate(0,-435.82682)"
       id="path4024"
       inkscape:connector-curvature="0" />
    <path
       sodipodi:type="arc"
       style="fill:none;stroke:#ff0000;stroke-width:0.70866144;stroke-linecap:round;stroke-linejoin:round;stroke-miterlimit:4;stroke-opacity:1;stroke-dasharray:none;stroke-dashoffset:7.08661437"
       id="path4026"
       sodipodi:cx="602.36218"
       sodipodi:cy="708.66138"
       sodipodi:rx="17.716536"
       sodipodi:ry="17.716536"
       d="m 620.07872,708.66138 a 17.716536,17.716536 0 1 1 -35.43307,0 17.716536,17.716536 0 1 1 35.43307,0 z"
       transform="matrix(0.62,0,0,0.62,269.34753,117.0001)" />
    <path
       sodipodi:type="arc"
       style="fill:none;stroke:#ff0000;stroke-width:0.70866144;stroke-linecap:round;stroke-linejoin:round;stroke-miterlimit:4;stroke-opacity:1;stroke-dasharray:none;stroke-dashoffset:7.08661437"
       id="path4030"
       sodipodi:cx="602.36218"
       sodipodi:cy="708.66138"
       sodipodi:rx="17.716536"
       sodipodi:ry="17.716536"
       d="m 620.07872,708.66138 a 17.716536,17.716536 0 1 1 -35.43307,0 17.716536,17.716536 0 1 1 35.43307,0 z"
       transform="matrix(0.62,0,0,0.62,140.30218,-131.09213)" />
    <path
       transform="matrix(0.62,0,0,0.62,140.30218,116.93938)"
       d="m 620.07872,708.66138 a 17.716536,17.716536 0 1 1 -35.43307,0 17.716536,17.716536 0 1 1 35.43307,0 z"
       sodipodi:ry="17.716536"
       sodipodi:rx="17.716536"
       sodipodi:cy="708.66138"
       sodipodi:cx="602.36218"
       id="path4032"
       style="fill:none;stroke:#ff0000;stroke-width:0.70866144;stroke-linecap:round;stroke-linejoin:round;stroke-miterlimit:4;stroke-opacity:1;stroke-dasharray:none;stroke-dashoffset:7.08661437"
       sodipodi:type="arc" />
    <path
       sodipodi:type="arc"
       style="fill:none;stroke:#ff0000;stroke-width:0.70866144;stroke-linecap:round;stroke-linejoin:round;stroke-miterlimit:4;stroke-opacity:1;stroke-dasharray:none;stroke-dashoffset:7.08661437"
       id="path4046"
       sodipodi:cx="602.36218"
       sodipodi:cy="708.66138"
       sodipodi:rx="17.716536"
       sodipodi:ry="17.716536"
       d="m 620.07872,708.66138 a 17.716536,17.716536 0 1 1 -35.43307,0 17.716536,17.716536 0 1 1 35.43307,0 z"
       transform="matrix(-0.62,0,0,0.62,1016.2077,-520.85588)" />
    <path
       transform="matrix(-0.62,0,0,0.62,1016.2077,-272.82437)"
       d="m 620.07872,708.66138 a 17.716536,17.716536 0 1 1 -35.43307,0 17.716536,17.716536 0 1 1 35.43307,0 z"
       sodipodi:ry="17.716536"
       sodipodi:rx="17.716536"
       sodipodi:cy="708.66138"
       sodipodi:cx="602.36218"
       id="path4048"
       style="fill:none;stroke:#ff0000;stroke-width:0.70866144;stroke-linecap:round;stroke-linejoin:round;stroke-miterlimit:4;stroke-opacity:1;stroke-dasharray:none;stroke-dashoffset:7.08661437"
       sodipodi:type="arc" />
  </g>
  <g
     style="display:none"
     transform="translate(0,435.82682)"
     id="g3979"
     inkscape:groupmode="layer"
     inkscape:label="lower 1">
    <path
       style="fill:none;stroke:#000000;stroke-width:1px;stroke-linecap:butt;stroke-linejoin:miter;stroke-opacity:1"
       d="m 513.78125,194.875 -17.71875,35.4375 0,88.59375 -17.71875,0 0,-53.15625 -17.71875,35.4375 0,88.5625 -17.71875,0 0,-53.125 -17.71875,35.4375 0,88.5625 -17.71875,0 0,-53.125 -17.71875,35.40625 0,0.0313 0,88.5625 -17.6875,0 0,-53.1875 -17.71875,35.46875 0,88.59375 -17.71875,0 0,-53.1875 -17.71875,35.46875 0,88.5625 -17.71875,0 0,-53.15625 -17.71875,35.4375 0,0.0313 0,88.5625 -17.71875,0 0,-53.125 -17.71875,35.40625 0,0.0313 0,88.5625 -17.71875,0 0,-53.125 -17.71875,35.40625 0,0.0313 0,88.53125 -17.71875,0 0,-53.09375 -17.71875,35.40625 0,0.0313 0,88.53125 -17.71875,0 0,-53.09375 -17.71875,35.4375 0,88.5313 -17.6875,0 0,-53.1563 -35.4375,70.875 0,17.7188 478.3125,0 11.34375,0 11.34375,0 106.3125,0 0,-389.75005 -106.3125,0 -11.34375,0 -11.34375,0 0.0313,-478.375 -35.4375,0 0,53.15625 -17.71875,0 0,-53.15625 z"
       transform="translate(0,-435.82682)"
       id="path3981"
       inkscape:connector-curvature="0" />
    <path
       transform="matrix(0.62,0,0,0.62,269.34753,-131.03141)"
       d="m 620.07872,708.66138 a 17.716536,17.716536 0 1 1 -35.43307,0 17.716536,17.716536 0 1 1 35.43307,0 z"
       sodipodi:ry="17.716536"
       sodipodi:rx="17.716536"
       sodipodi:cy="708.66138"
       sodipodi:cx="602.36218"
       id="path3985"
       style="fill:none;stroke:#ff0000;stroke-width:0.70866144;stroke-linecap:round;stroke-linejoin:round;stroke-miterlimit:4;stroke-opacity:1;stroke-dasharray:none;stroke-dashoffset:7.08661437"
       sodipodi:type="arc" />
    <path
       sodipodi:type="arc"
       style="fill:none;stroke:#ff0000;stroke-width:0.70866144;stroke-linecap:round;stroke-linejoin:round;stroke-miterlimit:4;stroke-opacity:1;stroke-dasharray:none;stroke-dashoffset:7.08661437"
       id="path3989"
       sodipodi:cx="602.36218"
       sodipodi:cy="708.66138"
       sodipodi:rx="17.716536"
       sodipodi:ry="17.716536"
       d="m 620.07872,708.66138 a 17.716536,17.716536 0 1 1 -35.43307,0 17.716536,17.716536 0 1 1 35.43307,0 z"
       transform="matrix(0.62,0,0,0.62,269.34753,117.0001)" />
    <path
       sodipodi:type="arc"
       style="fill:none;stroke:#ff0000;stroke-width:0.70866144;stroke-linecap:round;stroke-linejoin:round;stroke-miterlimit:4;stroke-opacity:1;stroke-dasharray:none;stroke-dashoffset:7.08661437"
       id="path3993"
       sodipodi:cx="602.36218"
       sodipodi:cy="708.66138"
       sodipodi:rx="17.716536"
       sodipodi:ry="17.716536"
       d="m 620.07872,708.66138 a 17.716536,17.716536 0 1 1 -35.43307,0 17.716536,17.716536 0 1 1 35.43307,0 z"
       transform="matrix(0.62,0,0,0.62,140.30218,-131.09213)" />
    <path
       transform="matrix(0.62,0,0,0.62,140.30218,116.93938)"
       d="m 620.07872,708.66138 a 17.716536,17.716536 0 1 1 -35.43307,0 17.716536,17.716536 0 1 1 35.43307,0 z"
       sodipodi:ry="17.716536"
       sodipodi:rx="17.716536"
       sodipodi:cy="708.66138"
       sodipodi:cx="602.36218"
       id="path3995"
       style="fill:none;stroke:#ff0000;stroke-width:0.70866144;stroke-linecap:round;stroke-linejoin:round;stroke-miterlimit:4;stroke-opacity:1;stroke-dasharray:none;stroke-dashoffset:7.08661437"
       sodipodi:type="arc" />
    <path
       transform="matrix(0.62,0,0,0.62,140.37114,-520.79516)"
       d="m 620.07872,708.66138 a 17.716536,17.716536 0 1 1 -35.43307,0 17.716536,17.716536 0 1 1 35.43307,0 z"
       sodipodi:ry="17.716536"
       sodipodi:rx="17.716536"
       sodipodi:cy="708.66138"
       sodipodi:cx="602.36218"
       id="path4001"
       style="fill:none;stroke:#ff0000;stroke-width:0.70866144;stroke-linecap:round;stroke-linejoin:round;stroke-miterlimit:4;stroke-opacity:1;stroke-dasharray:none;stroke-dashoffset:7.08661437"
       sodipodi:type="arc" />
    <path
       sodipodi:type="arc"
       style="fill:none;stroke:#ff0000;stroke-width:0.70866144;stroke-linecap:round;stroke-linejoin:round;stroke-miterlimit:4;stroke-opacity:1;stroke-dasharray:none;stroke-dashoffset:7.08661437"
       id="path4003"
       sodipodi:cx="602.36218"
       sodipodi:cy="708.66138"
       sodipodi:rx="17.716536"
       sodipodi:ry="17.716536"
       d="m 620.07872,708.66138 a 17.716536,17.716536 0 1 1 -35.43307,0 17.716536,17.716536 0 1 1 35.43307,0 z"
       transform="matrix(0.62,0,0,0.62,140.37114,-272.76365)" />
  </g>
</svg>
